{
    "asset": {
        "copyright": "2020 (c) Adobe Inc.",
        "generator": "Adobe Dimension - b6c6386da714573e1c60e92e900169531bbd057d",
        "version": "2.0",
        "extensions": {
            "KHR_xmp": {
                "packet": 0
            }
        }
    },
    "accessors": [
        {
            "bufferView": 0,
            "componentType": 5126,
            "count": 536,
            "type": "VEC3",
            "max": [
                2.298759937286377,
                1.9334598779678345,
                0.5732089877128601
            ],
            "min": [
                -2.298759937286377,
                -1.9334598779678345,
                -0.5732089877128601
            ]
        },
        {
            "bufferView": 1,
            "componentType": 5126,
            "count": 536,
            "type": "VEC3"
        },
        {
            "bufferView": 2,
            "componentType": 5126,
            "count": 536,
            "type": "VEC2"
        },
        {
            "bufferView": 3,
            "componentType": 5125,
            "count": 2424,
            "type": "SCALAR",
            "max": [
                535.0
            ],
            "min": [
                0.0
            ]
        },
        {
            "bufferView": 4,
            "componentType": 5126,
            "count": 84,
            "type": "VEC3",
            "max": [
                2.4798800945281984,
                2.794599771499634,
                0.5
            ],
            "min": [
                -2.4798800945281984,
                -2.794599771499634,
                -0.5
            ]
        },
        {
            "bufferView": 5,
            "componentType": 5126,
            "count": 84,
            "type": "VEC3"
        },
        {
            "bufferView": 6,
            "componentType": 5126,
            "count": 84,
            "type": "VEC2"
        },
        {
            "bufferView": 7,
            "componentType": 5125,
            "count": 204,
            "type": "SCALAR",
            "max": [
                83.0
            ],
            "min": [
                0.0
            ]
        }
    ],
    "bufferViews": [
        {
            "buffer": 0,
            "byteOffset": 0,
            "byteLength": 6432,
            "target": 34962
        },
        {
            "buffer": 0,
            "byteOffset": 6432,
            "byteLength": 6432,
            "target": 34962
        },
        {
            "buffer": 0,
            "byteOffset": 12864,
            "byteLength": 4288,
            "target": 34962
        },
        {
            "buffer": 0,
            "byteOffset": 17152,
            "byteLength": 9696,
            "target": 34963
        },
        {
            "buffer": 0,
            "byteOffset": 26848,
            "byteLength": 1008,
            "target": 34962
        },
        {
            "buffer": 0,
            "byteOffset": 27856,
            "byteLength": 1008,
            "target": 34962
        },
        {
            "buffer": 0,
            "byteOffset": 28864,
            "byteLength": 672,
            "target": 34962
        },
        {
            "buffer": 0,
            "byteOffset": 29536,
            "byteLength": 816,
            "target": 34963
        }
    ],
    "buffers": [
        {
            "byteLength": 30352,
            "uri": "Untitled_binary.bin"
        }
    ],
    "cameras": [
        {
            "perspective": {
                "znear": 0.0001507824781583622,
                "yfov": 0.45782235264778139,
                "zfar": 8.293035507202149,
                "aspectRatio": 1.7777777910232545
            },
            "type": "perspective",
            "name": "render_camera"
        }
    ],
    "images": [
        {
            "name": "image",
            "uri": "Untitled_images\\image.png",
            "mimeType": "image/png"
        },
        {
            "name": "damaged_glass_normal",
            "uri": "Untitled_images\\damaged_glass_normal.png",
            "mimeType": "image/png"
        }
    ],
    "materials": [
        {
            "pbrMetallicRoughness": {
                "baseColorFactor": [
                    0.830769956111908,
                    0.0,
                    0.021219009533524514,
                    0.25
                ],
                "metallicFactor": 0.0,
                "roughnessFactor": 0.0
            },
            "alphaMode": "BLEND",
            "name": "Water",
            "doubleSided": true
        },
        {
            "pbrMetallicRoughness": {
                "baseColorFactor": [
                    1.0,
                    1.0,
                    1.0,
                    0.25
                ],
                "metallicFactor": 0.0,
                "metallicRoughnessTexture": {
                    "index": 0
                }
            },
            "normalTexture": {
                "index": 1
            },
            "alphaMode": "BLEND",
            "name": "Damaged Glass",
            "doubleSided": true
        }
    ],
    "meshes": [
        {
            "name": "model 3",
            "primitives": [
                {
                    "attributes": {
                        "NORMAL": 1,
                        "POSITION": 0,
                        "TEXCOORD_0": 2
                    },
                    "indices": 3,
                    "material": 0
                }
            ]
        },
        {
            "name": "model",
            "primitives": [
                {
                    "attributes": {
                        "POSITION": 4,
                        "NORMAL": 5,
                        "TEXCOORD_0": 6
                    },
                    "indices": 7,
                    "material": 1
                }
            ]
        }
    ],
    "nodes": [
        {
            "translation": [
                -11.534879684448243,
                8.060413360595704,
                18.692739486694337
            ],
            "rotation": [
                -0.11511383205652237,
                -0.2712603807449341,
                -0.03269584849476814,
                0.9550380110740662
            ],
            "scale": [
                0.9999999403953552,
                1.0,
                1.0
            ],
            "camera": 0,
            "name": "render_camera_n3d"
        },
        {
            "translation": [
                0.006206283811479807,
                1.992143988609314,
                0.014246710576117039
            ],
            "scale": [
                1.0259840488433838,
                1.030351996421814,
                0.7095835208892822
            ],
            "mesh": 0,
            "name": "half x"
        },
        {
            "translation": [
                0.0,
                2.794139862060547,
                0.0
            ],
            "mesh": 1,
            "name": "x"
        }
    ],
    "samplers": [
        {},
        {}
    ],
    "scenes": [
        {
            "nodes": [
                0,
                1,
                2
            ],
            "name": "scene"
        }
    ],
    "textures": [
        {
            "name": "image",
            "sampler": 0,
            "source": 0
        },
        {
            "name": "damaged_glass_material::normal::image",
            "sampler": 1,
            "source": 1
        }
    ],
    "scene": 0,
    "extensions": {
        "KHR_xmp": {
            "@context": {
                "dc": "http://purl.org/dc/elements/1.1/"
            },
            "packets": [
                {
                    "dc:date": "2024-05-29T11:26:08.311+05:30",
                    "dc:format": "model/gltf+json",
                    "dc:title": "Untitled.dn",
                    "xmp:CreatorTool": "AdobeDCXTest"
                }
            ]
        }
    },
    "extensionsUsed": [
        "KHR_xmp"
    ]
}